ISO-10303-21;
HEADER;
/* Generated by software containing ST-Developer
 * from STEP Tools, Inc. (www.steptools.com) 
 */
/* OPTION: using custom renumber hook */

FILE_DESCRIPTION(
/* description */ ('STEP AP242 Edition 2',
'CAx-IF Rec.Pracs.---Representation and Presentation of Product Manufa
cturing Information (PMI)---4.0---2014-10-13',
'CAx-IF Rec.Pracs.---3D Tessellated Geometry---0.4---2014-09-14','2;1',
'CAx-IF Rec.Pracs.---User Defined Attributes---1.5---2016-08-15'),
/* implementation_level */ '2;1');

FILE_NAME(
/* name */ 'ErgoHandle',
/* time_stamp */ '2026-10-02T03:24:40Z',
/* author */ (''),
/* organization */ (''),
/* preprocessor_version */ 'ST-DEVELOPER v20',
/* originating_system */ 'ONSHAPE BY PTC INC, 1.221',
/* authorisation */ '  ');

FILE_SCHEMA (('AP242_MANAGED_MODEL_BASED_3D_ENGINEERING_MIM_LF { 1 0 10303 442 3 1 4 }'));
ENDSEC;

DATA;
#10=SHAPE_REPRESENTATION_RELATIONSHIP('','',#391,#11);
#11=ADVANCED_BREP_SHAPE_REPRESENTATION('',(#389),#677);
#12=SPHERICAL_SURFACE('',#433,0.01);
#13=SPHERICAL_SURFACE('',#435,0.01);
#14=TOROIDAL_SURFACE('',#420,0.02,0.01);
#15=TOROIDAL_SURFACE('',#422,0.02,0.01);
#16=CYLINDRICAL_SURFACE('',#412,0.01);
#17=CYLINDRICAL_SURFACE('',#414,0.01);
#18=CYLINDRICAL_SURFACE('',#416,0.01);
#19=CYLINDRICAL_SURFACE('',#418,0.01);
#20=CYLINDRICAL_SURFACE('',#424,0.01);
#21=CYLINDRICAL_SURFACE('',#425,0.01);
#22=CYLINDRICAL_SURFACE('',#427,0.01);
#23=CYLINDRICAL_SURFACE('',#429,0.01);
#24=CYLINDRICAL_SURFACE('',#431,0.01);
#25=CYLINDRICAL_SURFACE('',#437,0.01);
#26=CYLINDRICAL_SURFACE('',#438,0.00515);
#27=CIRCLE('',#402,0.00515);
#28=CIRCLE('',#409,0.02);
#29=CIRCLE('',#411,0.02);
#30=CIRCLE('',#413,0.01);
#31=CIRCLE('',#415,0.01);
#32=CIRCLE('',#417,0.01);
#33=CIRCLE('',#419,0.01);
#34=CIRCLE('',#421,0.01);
#35=CIRCLE('',#423,0.01);
#36=CIRCLE('',#426,0.01);
#37=CIRCLE('',#428,0.01);
#38=CIRCLE('',#430,0.01);
#39=CIRCLE('',#432,0.01);
#40=CIRCLE('',#434,0.01);
#41=CIRCLE('',#436,0.01);
#42=CIRCLE('',#439,0.00515);
#43=ELLIPSE('',#395,0.0100615390423749,0.01);
#44=ELLIPSE('',#396,0.0100615390423749,0.01);
#45=ELLIPSE('',#397,0.0100615390423749,0.01);
#46=ELLIPSE('',#398,0.0100615390423749,0.01);
#47=ELLIPSE('',#403,0.0105409255338946,0.01);
#48=ELLIPSE('',#404,0.0105409255338946,0.01);
#49=ELLIPSE('',#405,0.0105409255338946,0.01);
#50=ELLIPSE('',#406,0.0105409255338946,0.01);
#51=ORIENTED_EDGE('',*,*,#155,.T.);
#52=ORIENTED_EDGE('',*,*,#156,.T.);
#53=ORIENTED_EDGE('',*,*,#157,.F.);
#54=ORIENTED_EDGE('',*,*,#158,.T.);
#55=ORIENTED_EDGE('',*,*,#157,.T.);
#56=ORIENTED_EDGE('',*,*,#159,.T.);
#57=ORIENTED_EDGE('',*,*,#160,.T.);
#58=ORIENTED_EDGE('',*,*,#161,.T.);
#59=ORIENTED_EDGE('',*,*,#162,.F.);
#60=ORIENTED_EDGE('',*,*,#163,.T.);
#61=ORIENTED_EDGE('',*,*,#164,.F.);
#62=ORIENTED_EDGE('',*,*,#165,.T.);
#63=ORIENTED_EDGE('',*,*,#162,.T.);
#64=ORIENTED_EDGE('',*,*,#166,.T.);
#65=ORIENTED_EDGE('',*,*,#167,.T.);
#66=ORIENTED_EDGE('',*,*,#168,.T.);
#67=ORIENTED_EDGE('',*,*,#169,.T.);
#68=ORIENTED_EDGE('',*,*,#170,.T.);
#69=ORIENTED_EDGE('',*,*,#171,.F.);
#70=ORIENTED_EDGE('',*,*,#172,.T.);
#71=ORIENTED_EDGE('',*,*,#173,.F.);
#72=ORIENTED_EDGE('',*,*,#174,.T.);
#73=ORIENTED_EDGE('',*,*,#175,.T.);
#74=ORIENTED_EDGE('',*,*,#176,.F.);
#75=ORIENTED_EDGE('',*,*,#177,.T.);
#76=ORIENTED_EDGE('',*,*,#178,.F.);
#77=ORIENTED_EDGE('',*,*,#179,.T.);
#78=ORIENTED_EDGE('',*,*,#171,.T.);
#79=ORIENTED_EDGE('',*,*,#180,.T.);
#80=ORIENTED_EDGE('',*,*,#176,.T.);
#81=ORIENTED_EDGE('',*,*,#181,.T.);
#82=ORIENTED_EDGE('',*,*,#182,.T.);
#83=ORIENTED_EDGE('',*,*,#183,.T.);
#84=ORIENTED_EDGE('',*,*,#178,.T.);
#85=ORIENTED_EDGE('',*,*,#184,.T.);
#86=ORIENTED_EDGE('',*,*,#185,.F.);
#87=ORIENTED_EDGE('',*,*,#186,.T.);
#88=ORIENTED_EDGE('',*,*,#164,.T.);
#89=ORIENTED_EDGE('',*,*,#187,.T.);
#90=ORIENTED_EDGE('',*,*,#188,.T.);
#91=ORIENTED_EDGE('',*,*,#189,.F.);
#92=ORIENTED_EDGE('',*,*,#190,.T.);
#93=ORIENTED_EDGE('',*,*,#174,.F.);
#94=ORIENTED_EDGE('',*,*,#191,.T.);
#95=ORIENTED_EDGE('',*,*,#192,.T.);
#96=ORIENTED_EDGE('',*,*,#160,.F.);
#97=ORIENTED_EDGE('',*,*,#193,.T.);
#98=ORIENTED_EDGE('',*,*,#177,.F.);
#99=ORIENTED_EDGE('',*,*,#183,.F.);
#100=ORIENTED_EDGE('',*,*,#194,.F.);
#101=ORIENTED_EDGE('',*,*,#184,.F.);
#102=ORIENTED_EDGE('',*,*,#165,.F.);
#103=ORIENTED_EDGE('',*,*,#186,.F.);
#104=ORIENTED_EDGE('',*,*,#195,.F.);
#105=ORIENTED_EDGE('',*,*,#158,.F.);
#106=ORIENTED_EDGE('',*,*,#159,.F.);
#107=ORIENTED_EDGE('',*,*,#156,.F.);
#108=ORIENTED_EDGE('',*,*,#196,.F.);
#109=ORIENTED_EDGE('',*,*,#193,.F.);
#110=ORIENTED_EDGE('',*,*,#175,.F.);
#111=ORIENTED_EDGE('',*,*,#190,.F.);
#112=ORIENTED_EDGE('',*,*,#197,.F.);
#113=ORIENTED_EDGE('',*,*,#181,.F.);
#114=ORIENTED_EDGE('',*,*,#185,.T.);
#115=ORIENTED_EDGE('',*,*,#194,.T.);
#116=ORIENTED_EDGE('',*,*,#198,.F.);
#117=ORIENTED_EDGE('',*,*,#195,.T.);
#118=ORIENTED_EDGE('',*,*,#189,.T.);
#119=ORIENTED_EDGE('',*,*,#196,.T.);
#120=ORIENTED_EDGE('',*,*,#199,.F.);
#121=ORIENTED_EDGE('',*,*,#197,.T.);
#122=ORIENTED_EDGE('',*,*,#198,.T.);
#123=ORIENTED_EDGE('',*,*,#182,.F.);
#124=ORIENTED_EDGE('',*,*,#199,.T.);
#125=ORIENTED_EDGE('',*,*,#155,.F.);
#126=ORIENTED_EDGE('',*,*,#163,.F.);
#127=ORIENTED_EDGE('',*,*,#168,.F.);
#128=ORIENTED_EDGE('',*,*,#200,.F.);
#129=ORIENTED_EDGE('',*,*,#187,.F.);
#130=ORIENTED_EDGE('',*,*,#179,.F.);
#131=ORIENTED_EDGE('',*,*,#188,.F.);
#132=ORIENTED_EDGE('',*,*,#201,.F.);
#133=ORIENTED_EDGE('',*,*,#172,.F.);
#134=ORIENTED_EDGE('',*,*,#180,.F.);
#135=ORIENTED_EDGE('',*,*,#170,.F.);
#136=ORIENTED_EDGE('',*,*,#202,.F.);
#137=ORIENTED_EDGE('',*,*,#191,.F.);
#138=ORIENTED_EDGE('',*,*,#161,.F.);
#139=ORIENTED_EDGE('',*,*,#192,.F.);
#140=ORIENTED_EDGE('',*,*,#203,.F.);
#141=ORIENTED_EDGE('',*,*,#166,.F.);
#142=ORIENTED_EDGE('',*,*,#201,.T.);
#143=ORIENTED_EDGE('',*,*,#200,.T.);
#144=ORIENTED_EDGE('',*,*,#204,.F.);
#145=ORIENTED_EDGE('',*,*,#203,.T.);
#146=ORIENTED_EDGE('',*,*,#202,.T.);
#147=ORIENTED_EDGE('',*,*,#205,.F.);
#148=ORIENTED_EDGE('',*,*,#204,.T.);
#149=ORIENTED_EDGE('',*,*,#167,.F.);
#150=ORIENTED_EDGE('',*,*,#205,.T.);
#151=ORIENTED_EDGE('',*,*,#169,.F.);
#152=ORIENTED_EDGE('',*,*,#206,.F.);
#153=ORIENTED_EDGE('',*,*,#173,.T.);
#154=ORIENTED_EDGE('',*,*,#206,.T.);
#155=EDGE_CURVE('',#207,#208,#239,.T.);
#156=EDGE_CURVE('',#208,#209,#240,.T.);
#157=EDGE_CURVE('',#210,#209,#241,.T.);
#158=EDGE_CURVE('',#210,#207,#242,.F.);
#159=EDGE_CURVE('',#209,#211,#43,.F.);
#160=EDGE_CURVE('',#211,#212,#243,.T.);
#161=EDGE_CURVE('',#212,#213,#44,.F.);
#162=EDGE_CURVE('',#214,#213,#244,.T.);
#163=EDGE_CURVE('',#214,#215,#45,.F.);
#164=EDGE_CURVE('',#216,#215,#245,.T.);
#165=EDGE_CURVE('',#216,#210,#46,.F.);
#166=EDGE_CURVE('',#213,#217,#246,.F.);
#167=EDGE_CURVE('',#217,#218,#247,.F.);
#168=EDGE_CURVE('',#218,#214,#248,.T.);
#169=EDGE_CURVE('',#219,#220,#249,.T.);
#170=EDGE_CURVE('',#220,#221,#250,.F.);
#171=EDGE_CURVE('',#222,#221,#251,.T.);
#172=EDGE_CURVE('',#222,#219,#252,.T.);
#173=EDGE_CURVE('',#223,#223,#27,.T.);
#174=EDGE_CURVE('',#224,#225,#253,.T.);
#175=EDGE_CURVE('',#225,#226,#47,.F.);
#176=EDGE_CURVE('',#227,#226,#254,.T.);
#177=EDGE_CURVE('',#227,#228,#48,.F.);
#178=EDGE_CURVE('',#229,#228,#255,.T.);
#179=EDGE_CURVE('',#229,#222,#49,.F.);
#180=EDGE_CURVE('',#221,#224,#50,.F.);
#181=EDGE_CURVE('',#226,#230,#256,.T.);
#182=EDGE_CURVE('',#230,#231,#257,.F.);
#183=EDGE_CURVE('',#231,#227,#258,.F.);
#184=EDGE_CURVE('',#228,#232,#259,.T.);
#185=EDGE_CURVE('',#233,#232,#28,.T.);
#186=EDGE_CURVE('',#233,#216,#260,.T.);
#187=EDGE_CURVE('',#215,#234,#261,.F.);
#188=EDGE_CURVE('',#234,#229,#262,.F.);
#189=EDGE_CURVE('',#235,#236,#29,.F.);
#190=EDGE_CURVE('',#235,#225,#263,.F.);
#191=EDGE_CURVE('',#224,#237,#264,.T.);
#192=EDGE_CURVE('',#237,#212,#265,.T.);
#193=EDGE_CURVE('',#211,#236,#266,.F.);
#194=EDGE_CURVE('',#232,#231,#30,.T.);
#195=EDGE_CURVE('',#207,#233,#31,.T.);
#196=EDGE_CURVE('',#236,#208,#32,.T.);
#197=EDGE_CURVE('',#230,#235,#33,.T.);
#198=EDGE_CURVE('',#207,#231,#34,.T.);
#199=EDGE_CURVE('',#230,#208,#35,.F.);
#200=EDGE_CURVE('',#234,#218,#36,.T.);
#201=EDGE_CURVE('',#219,#234,#37,.T.);
#202=EDGE_CURVE('',#237,#220,#38,.T.);
#203=EDGE_CURVE('',#217,#237,#39,.T.);
#204=EDGE_CURVE('',#219,#218,#40,.F.);
#205=EDGE_CURVE('',#217,#220,#41,.F.);
#206=EDGE_CURVE('',#238,#238,#42,.T.);
#207=VERTEX_POINT('',#570);
#208=VERTEX_POINT('',#571);
#209=VERTEX_POINT('',#573);
#210=VERTEX_POINT('',#575);
#211=VERTEX_POINT('',#579);
#212=VERTEX_POINT('',#581);
#213=VERTEX_POINT('',#583);
#214=VERTEX_POINT('',#585);
#215=VERTEX_POINT('',#587);
#216=VERTEX_POINT('',#589);
#217=VERTEX_POINT('',#593);
#218=VERTEX_POINT('',#595);
#219=VERTEX_POINT('',#599);
#220=VERTEX_POINT('',#600);
#221=VERTEX_POINT('',#602);
#222=VERTEX_POINT('',#604);
#223=VERTEX_POINT('',#608);
#224=VERTEX_POINT('',#610);
#225=VERTEX_POINT('',#611);
#226=VERTEX_POINT('',#613);
#227=VERTEX_POINT('',#615);
#228=VERTEX_POINT('',#617);
#229=VERTEX_POINT('',#619);
#230=VERTEX_POINT('',#624);
#231=VERTEX_POINT('',#626);
#232=VERTEX_POINT('',#630);
#233=VERTEX_POINT('',#632);
#234=VERTEX_POINT('',#635);
#235=VERTEX_POINT('',#639);
#236=VERTEX_POINT('',#640);
#237=VERTEX_POINT('',#643);
#238=VERTEX_POINT('',#674);
#239=LINE('',#569,#267);
#240=LINE('',#572,#268);
#241=LINE('',#574,#269);
#242=LINE('',#576,#270);
#243=LINE('',#580,#271);
#244=LINE('',#584,#272);
#245=LINE('',#588,#273);
#246=LINE('',#592,#274);
#247=LINE('',#594,#275);
#248=LINE('',#596,#276);
#249=LINE('',#598,#277);
#250=LINE('',#601,#278);
#251=LINE('',#603,#279);
#252=LINE('',#605,#280);
#253=LINE('',#609,#281);
#254=LINE('',#614,#282);
#255=LINE('',#618,#283);
#256=LINE('',#623,#284);
#257=LINE('',#625,#285);
#258=LINE('',#627,#286);
#259=LINE('',#629,#287);
#260=LINE('',#633,#288);
#261=LINE('',#634,#289);
#262=LINE('',#636,#290);
#263=LINE('',#641,#291);
#264=LINE('',#642,#292);
#265=LINE('',#644,#293);
#266=LINE('',#645,#294);
#267=VECTOR('',#445,1.);
#268=VECTOR('',#446,1.);
#269=VECTOR('',#447,1.);
#270=VECTOR('',#448,1.);
#271=VECTOR('',#453,1.);
#272=VECTOR('',#456,1.);
#273=VECTOR('',#459,1.);
#274=VECTOR('',#464,1.);
#275=VECTOR('',#465,1.);
#276=VECTOR('',#466,1.);
#277=VECTOR('',#469,1.);
#278=VECTOR('',#470,1.);
#279=VECTOR('',#471,1.);
#280=VECTOR('',#472,1.);
#281=VECTOR('',#477,1.);
#282=VECTOR('',#480,1.);
#283=VECTOR('',#483,1.);
#284=VECTOR('',#490,1.);
#285=VECTOR('',#491,1.);
#286=VECTOR('',#492,1.);
#287=VECTOR('',#495,1.);
#288=VECTOR('',#498,1.);
#289=VECTOR('',#499,1.);
#290=VECTOR('',#500,1.);
#291=VECTOR('',#505,1.);
#292=VECTOR('',#506,1.);
#293=VECTOR('',#507,1.);
#294=VECTOR('',#508,1.);
#295=EDGE_LOOP('',(#51,#52,#53,#54));
#296=EDGE_LOOP('',(#55,#56,#57,#58,#59,#60,#61,#62));
#297=EDGE_LOOP('',(#63,#64,#65,#66));
#298=EDGE_LOOP('',(#67,#68,#69,#70));
#299=EDGE_LOOP('',(#71));
#300=EDGE_LOOP('',(#72,#73,#74,#75,#76,#77,#78,#79));
#301=EDGE_LOOP('',(#80,#81,#82,#83));
#302=EDGE_LOOP('',(#84,#85,#86,#87,#88,#89,#90));
#303=EDGE_LOOP('',(#91,#92,#93,#94,#95,#96,#97));
#304=EDGE_LOOP('',(#98,#99,#100,#101));
#305=EDGE_LOOP('',(#102,#103,#104,#105));
#306=EDGE_LOOP('',(#106,#107,#108,#109));
#307=EDGE_LOOP('',(#110,#111,#112,#113));
#308=EDGE_LOOP('',(#114,#115,#116,#117));
#309=EDGE_LOOP('',(#118,#119,#120,#121));
#310=EDGE_LOOP('',(#122,#123,#124,#125));
#311=EDGE_LOOP('',(#126,#127,#128,#129));
#312=EDGE_LOOP('',(#130,#131,#132,#133));
#313=EDGE_LOOP('',(#134,#135,#136,#137));
#314=EDGE_LOOP('',(#138,#139,#140,#141));
#315=EDGE_LOOP('',(#142,#143,#144));
#316=EDGE_LOOP('',(#145,#146,#147));
#317=EDGE_LOOP('',(#148,#149,#150,#151));
#318=EDGE_LOOP('',(#152));
#319=EDGE_LOOP('',(#153));
#320=EDGE_LOOP('',(#154));
#321=FACE_BOUND('',#295,.T.);
#322=FACE_BOUND('',#296,.T.);
#323=FACE_BOUND('',#297,.T.);
#324=FACE_BOUND('',#298,.T.);
#325=FACE_BOUND('',#299,.T.);
#326=FACE_BOUND('',#300,.T.);
#327=FACE_BOUND('',#301,.T.);
#328=FACE_BOUND('',#302,.T.);
#329=FACE_BOUND('',#303,.T.);
#330=FACE_BOUND('',#304,.T.);
#331=FACE_BOUND('',#305,.T.);
#332=FACE_BOUND('',#306,.T.);
#333=FACE_BOUND('',#307,.T.);
#334=FACE_BOUND('',#308,.T.);
#335=FACE_BOUND('',#309,.T.);
#336=FACE_BOUND('',#310,.T.);
#337=FACE_BOUND('',#311,.T.);
#338=FACE_BOUND('',#312,.T.);
#339=FACE_BOUND('',#313,.T.);
#340=FACE_BOUND('',#314,.T.);
#341=FACE_BOUND('',#315,.T.);
#342=FACE_BOUND('',#316,.T.);
#343=FACE_BOUND('',#317,.T.);
#344=FACE_BOUND('',#318,.T.);
#345=FACE_BOUND('',#319,.T.);
#346=FACE_BOUND('',#320,.T.);
#347=PLANE('',#393);
#348=PLANE('',#394);
#349=PLANE('',#399);
#350=PLANE('',#400);
#351=PLANE('',#401);
#352=PLANE('',#407);
#353=PLANE('',#408);
#354=PLANE('',#410);
#355=PLANE('',#440);
#356=ADVANCED_FACE('',(#321),#347,.F.);
#357=ADVANCED_FACE('',(#322),#348,.F.);
#358=ADVANCED_FACE('',(#323),#349,.T.);
#359=ADVANCED_FACE('',(#324),#350,.T.);
#360=ADVANCED_FACE('',(#325,#326),#351,.F.);
#361=ADVANCED_FACE('',(#327),#352,.F.);
#362=ADVANCED_FACE('',(#328),#353,.T.);
#363=ADVANCED_FACE('',(#329),#354,.F.);
#364=ADVANCED_FACE('',(#330),#16,.T.);
#365=ADVANCED_FACE('',(#331),#17,.T.);
#366=ADVANCED_FACE('',(#332),#18,.T.);
#367=ADVANCED_FACE('',(#333),#19,.T.);
#368=ADVANCED_FACE('',(#334),#14,.T.);
#369=ADVANCED_FACE('',(#335),#15,.T.);
#370=ADVANCED_FACE('',(#336),#20,.F.);
#371=ADVANCED_FACE('',(#337),#21,.T.);
#372=ADVANCED_FACE('',(#338),#22,.T.);
#373=ADVANCED_FACE('',(#339),#23,.T.);
#374=ADVANCED_FACE('',(#340),#24,.T.);
#375=ADVANCED_FACE('',(#341),#12,.T.);
#376=ADVANCED_FACE('',(#342),#13,.T.);
#377=ADVANCED_FACE('',(#343),#25,.T.);
#378=ADVANCED_FACE('',(#344,#345),#26,.F.);
#379=ADVANCED_FACE('',(#346),#355,.T.);
#380=CLOSED_SHELL('',(#356,#357,#358,#359,#360,#361,#362,#363,#364,#365,
#366,#367,#368,#369,#370,#371,#372,#373,#374,#375,#376,#377,#378,#379));
#381=STYLED_ITEM('',(#382),#389);
#382=PRESENTATION_STYLE_ASSIGNMENT((#383));
#383=SURFACE_STYLE_USAGE(.BOTH.,#384);
#384=SURFACE_SIDE_STYLE('',(#385));
#385=SURFACE_STYLE_FILL_AREA(#386);
#386=FILL_AREA_STYLE('',(#387));
#387=FILL_AREA_STYLE_COLOUR('',#388);
#388=COLOUR_RGB('',0.615686274509804,0.811764705882353,0.929411764705882);
#389=MANIFOLD_SOLID_BREP('Part 1',#380);
#390=SHAPE_DEFINITION_REPRESENTATION(#682,#391);
#391=SHAPE_REPRESENTATION('Part 1',(#392),#677);
#392=AXIS2_PLACEMENT_3D('',#567,#441,#442);
#393=AXIS2_PLACEMENT_3D('',#568,#443,#444);
#394=AXIS2_PLACEMENT_3D('',#577,#449,#450);
#395=AXIS2_PLACEMENT_3D('',#578,#451,#452);
#396=AXIS2_PLACEMENT_3D('',#582,#454,#455);
#397=AXIS2_PLACEMENT_3D('',#586,#457,#458);
#398=AXIS2_PLACEMENT_3D('',#590,#460,#461);
#399=AXIS2_PLACEMENT_3D('',#591,#462,#463);
#400=AXIS2_PLACEMENT_3D('',#597,#467,#468);
#401=AXIS2_PLACEMENT_3D('',#606,#473,#474);
#402=AXIS2_PLACEMENT_3D('',#607,#475,#476);
#403=AXIS2_PLACEMENT_3D('',#612,#478,#479);
#404=AXIS2_PLACEMENT_3D('',#616,#481,#482);
#405=AXIS2_PLACEMENT_3D('',#620,#484,#485);
#406=AXIS2_PLACEMENT_3D('',#621,#486,#487);
#407=AXIS2_PLACEMENT_3D('',#622,#488,#489);
#408=AXIS2_PLACEMENT_3D('',#628,#493,#494);
#409=AXIS2_PLACEMENT_3D('',#631,#496,#497);
#410=AXIS2_PLACEMENT_3D('',#637,#501,#502);
#411=AXIS2_PLACEMENT_3D('',#638,#503,#504);
#412=AXIS2_PLACEMENT_3D('',#646,#509,#510);
#413=AXIS2_PLACEMENT_3D('',#647,#511,#512);
#414=AXIS2_PLACEMENT_3D('',#648,#513,#514);
#415=AXIS2_PLACEMENT_3D('',#649,#515,#516);
#416=AXIS2_PLACEMENT_3D('',#650,#517,#518);
#417=AXIS2_PLACEMENT_3D('',#651,#519,#520);
#418=AXIS2_PLACEMENT_3D('',#652,#521,#522);
#419=AXIS2_PLACEMENT_3D('',#653,#523,#524);
#420=AXIS2_PLACEMENT_3D('',#654,#525,#526);
#421=AXIS2_PLACEMENT_3D('',#655,#527,#528);
#422=AXIS2_PLACEMENT_3D('',#656,#529,#530);
#423=AXIS2_PLACEMENT_3D('',#657,#531,#532);
#424=AXIS2_PLACEMENT_3D('',#658,#533,#534);
#425=AXIS2_PLACEMENT_3D('',#659,#535,#536);
#426=AXIS2_PLACEMENT_3D('',#660,#537,#538);
#427=AXIS2_PLACEMENT_3D('',#661,#539,#540);
#428=AXIS2_PLACEMENT_3D('',#662,#541,#542);
#429=AXIS2_PLACEMENT_3D('',#663,#543,#544);
#430=AXIS2_PLACEMENT_3D('',#664,#545,#546);
#431=AXIS2_PLACEMENT_3D('',#665,#547,#548);
#432=AXIS2_PLACEMENT_3D('',#666,#549,#550);
#433=AXIS2_PLACEMENT_3D('',#667,#551,#552);
#434=AXIS2_PLACEMENT_3D('',#668,#553,#554);
#435=AXIS2_PLACEMENT_3D('',#669,#555,#556);
#436=AXIS2_PLACEMENT_3D('',#670,#557,#558);
#437=AXIS2_PLACEMENT_3D('',#671,#559,#560);
#438=AXIS2_PLACEMENT_3D('',#672,#561,#562);
#439=AXIS2_PLACEMENT_3D('',#673,#563,#564);
#440=AXIS2_PLACEMENT_3D('',#675,#565,#566);
#441=DIRECTION('',(0.,0.,1.));
#442=DIRECTION('',(1.,0.,0.));
#443=DIRECTION('',(-0.110431526074847,0.993883734673619,0.));
#444=DIRECTION('',(-0.993883734673619,-0.110431526074847,0.));
#445=DIRECTION('',(0.,0.,-1.));
#446=DIRECTION('',(0.993883734673619,0.110431526074847,0.));
#447=DIRECTION('',(0.,0.,-1.));
#448=DIRECTION('',(0.993883734673619,0.110431526074847,0.));
#449=DIRECTION('',(-1.,0.,0.));
#450=DIRECTION('',(0.,0.,1.));
#451=DIRECTION('',(-1.,0.,0.));
#452=DIRECTION('',(0.,1.,0.));
#453=DIRECTION('',(0.,1.,0.));
#454=DIRECTION('',(-1.,0.,0.));
#455=DIRECTION('',(0.,-1.,0.));
#456=DIRECTION('',(0.,0.,-1.));
#457=DIRECTION('',(-1.,0.,0.));
#458=DIRECTION('',(0.,1.,0.));
#459=DIRECTION('',(0.,1.,0.));
#460=DIRECTION('',(-1.,0.,0.));
#461=DIRECTION('',(0.,-1.,0.));
#462=DIRECTION('',(-0.110431526074847,0.993883734673619,0.));
#463=DIRECTION('',(-0.993883734673619,-0.110431526074847,0.));
#464=DIRECTION('',(0.993883734673619,0.110431526074847,0.));
#465=DIRECTION('',(0.,0.,-1.));
#466=DIRECTION('',(0.993883734673619,0.110431526074847,0.));
#467=DIRECTION('',(-0.948683298050514,0.316227766016838,0.));
#468=DIRECTION('',(-0.316227766016838,-0.948683298050514,0.));
#469=DIRECTION('',(0.,0.,-1.));
#470=DIRECTION('',(0.316227766016838,0.948683298050514,0.));
#471=DIRECTION('',(0.,0.,-1.));
#472=DIRECTION('',(0.316227766016838,0.948683298050514,0.));
#473=DIRECTION('',(0.,1.,0.));
#474=DIRECTION('',(0.,0.,1.));
#475=DIRECTION('',(0.,-1.,0.));
#476=DIRECTION('',(1.,0.,0.));
#477=DIRECTION('',(1.,0.,0.));
#478=DIRECTION('',(0.,1.,0.));
#479=DIRECTION('',(1.,0.,0.));
#480=DIRECTION('',(0.,0.,-1.));
#481=DIRECTION('',(0.,1.,0.));
#482=DIRECTION('',(-1.,0.,0.));
#483=DIRECTION('',(1.,0.,0.));
#484=DIRECTION('',(0.,1.,0.));
#485=DIRECTION('',(1.,0.,0.));
#486=DIRECTION('',(0.,1.,0.));
#487=DIRECTION('',(-1.,0.,0.));
#488=DIRECTION('',(-0.948683298050514,0.316227766016838,0.));
#489=DIRECTION('',(-0.316227766016838,-0.948683298050514,0.));
#490=DIRECTION('',(0.316227766016838,0.948683298050514,0.));
#491=DIRECTION('',(0.,0.,-1.));
#492=DIRECTION('',(0.316227766016838,0.948683298050514,0.));
#493=DIRECTION('',(0.,0.,1.));
#494=DIRECTION('',(1.,0.,0.));
#495=DIRECTION('',(0.316227766016838,0.948683298050514,0.));
#496=DIRECTION('',(0.,0.,1.));
#497=DIRECTION('',(1.,0.,0.));
#498=DIRECTION('',(0.993883734673619,0.110431526074847,0.));
#499=DIRECTION('',(0.993883734673619,0.110431526074847,0.));
#500=DIRECTION('',(0.316227766016838,0.948683298050514,0.));
#501=DIRECTION('',(0.,0.,1.));
#502=DIRECTION('',(1.,0.,0.));
#503=DIRECTION('',(0.,0.,1.));
#504=DIRECTION('',(1.,0.,0.));
#505=DIRECTION('',(0.316227766016838,0.948683298050514,0.));
#506=DIRECTION('',(0.316227766016838,0.948683298050514,0.));
#507=DIRECTION('',(0.993883734673619,0.110431526074847,0.));
#508=DIRECTION('',(0.993883734673619,0.110431526074847,0.));
#509=DIRECTION('',(-0.316227766016838,-0.948683298050514,0.));
#510=DIRECTION('',(0.948683298050514,-0.316227766016838,0.));
#511=DIRECTION('',(0.316227766016838,0.948683298050514,0.));
#512=DIRECTION('',(-0.948683298050514,0.316227766016838,0.));
#513=DIRECTION('',(-0.993883734673619,-0.110431526074847,0.));
#514=DIRECTION('',(0.110431526074847,-0.993883734673619,0.));
#515=DIRECTION('',(-0.993883734673619,-0.110431526074847,0.));
#516=DIRECTION('',(0.110431526074847,-0.993883734673619,0.));
#517=DIRECTION('',(0.993883734673619,0.110431526074847,0.));
#518=DIRECTION('',(-0.110431526074847,0.993883734673619,0.));
#519=DIRECTION('',(-0.993883734673619,-0.110431526074847,0.));
#520=DIRECTION('',(0.110431526074847,-0.993883734673619,0.));
#521=DIRECTION('',(0.316227766016838,0.948683298050514,0.));
#522=DIRECTION('',(-0.948683298050514,0.316227766016838,0.));
#523=DIRECTION('',(0.316227766016838,0.948683298050514,0.));
#524=DIRECTION('',(-0.948683298050514,0.316227766016838,0.));
#525=DIRECTION('',(0.,0.,1.));
#526=DIRECTION('',(1.,0.,0.));
#527=DIRECTION('',(0.,0.,1.));
#528=DIRECTION('',(1.,0.,0.));
#529=DIRECTION('',(0.,0.,1.));
#530=DIRECTION('',(1.,0.,0.));
#531=DIRECTION('',(0.,0.,1.));
#532=DIRECTION('',(1.,0.,0.));
#533=DIRECTION('',(0.,0.,1.));
#534=DIRECTION('',(1.,0.,0.));
#535=DIRECTION('',(0.993883734673619,0.110431526074847,0.));
#536=DIRECTION('',(-0.110431526074847,0.993883734673619,0.));
#537=DIRECTION('',(-0.993883734673619,-0.110431526074847,0.));
#538=DIRECTION('',(0.110431526074847,-0.993883734673619,0.));
#539=DIRECTION('',(0.316227766016838,0.948683298050514,0.));
#540=DIRECTION('',(-0.948683298050514,0.316227766016838,0.));
#541=DIRECTION('',(0.316227766016838,0.948683298050514,3.29140637679066E-16));
#542=DIRECTION('',(-0.948683298050514,0.316227766016838,0.));
#543=DIRECTION('',(-0.316227766016838,-0.948683298050514,0.));
#544=DIRECTION('',(0.948683298050514,-0.316227766016838,0.));
#545=DIRECTION('',(0.316227766016838,0.948683298050514,0.));
#546=DIRECTION('',(-0.948683298050514,0.316227766016838,0.));
#547=DIRECTION('',(-0.993883734673619,-0.110431526074847,0.));
#548=DIRECTION('',(0.110431526074847,-0.993883734673619,0.));
#549=DIRECTION('',(-0.993883734673619,-0.110431526074847,3.0650905723197E-16));
#550=DIRECTION('',(0.110431526074847,-0.993883734673619,0.));
#551=DIRECTION('',(0.,0.,1.));
#552=DIRECTION('',(1.,0.,0.));
#553=DIRECTION('',(0.,0.,1.));
#554=DIRECTION('',(1.,0.,0.));
#555=DIRECTION('',(-3.46944695195362E-16,3.46944695195362E-16,-1.));
#556=DIRECTION('',(-1.,0.,3.46944695195362E-16));
#557=DIRECTION('',(0.,0.,-1.));
#558=DIRECTION('',(-1.,0.,0.));
#559=DIRECTION('',(0.,0.,-1.));
#560=DIRECTION('',(-1.,0.,0.));
#561=DIRECTION('',(0.,-1.,0.));
#562=DIRECTION('',(0.,0.,-1.));
#563=DIRECTION('',(0.,-1.,0.));
#564=DIRECTION('',(1.,0.,0.));
#565=DIRECTION('',(0.,-1.,0.));
#566=DIRECTION('',(1.,0.,0.));
#567=CARTESIAN_POINT('',(0.,0.,0.));
#568=CARTESIAN_POINT('',(0.0643293816362394,0.0108827503536449,0.025));
#569=CARTESIAN_POINT('',(0.0350179533207219,0.00762592498525406,0.));
#570=CARTESIAN_POINT('',(0.0350179533207219,0.00762592498525406,0.015));
#571=CARTESIAN_POINT('',(0.0350179533207219,0.00762592498525406,0.01));
#572=CARTESIAN_POINT('',(0.0643293816362394,0.0108827503536449,0.01));
#573=CARTESIAN_POINT('',(0.1,0.0148461523940627,0.01));
#574=CARTESIAN_POINT('',(0.1,0.0148461523940627,0.025));
#575=CARTESIAN_POINT('',(0.1,0.0148461523940627,0.015));
#576=CARTESIAN_POINT('',(0.0286587632724788,0.00691934831322705,0.015));
#577=CARTESIAN_POINT('',(0.1,0.0274230761970314,0.025));
#578=CARTESIAN_POINT('',(0.1,0.0249076914364377,0.01));
#579=CARTESIAN_POINT('',(0.1,0.0249076914364377,0.));
#580=CARTESIAN_POINT('',(0.1,0.0274230761970314,0.));
#581=CARTESIAN_POINT('',(0.1,0.0299384609576251,0.));
#582=CARTESIAN_POINT('',(0.1,0.0299384609576251,0.01));
#583=CARTESIAN_POINT('',(0.1,0.04,0.01));
#584=CARTESIAN_POINT('',(0.1,0.04,0.025));
#585=CARTESIAN_POINT('',(0.1,0.04,0.015));
#586=CARTESIAN_POINT('',(0.1,0.0299384609576251,0.015));
#587=CARTESIAN_POINT('',(0.1,0.0299384609576251,0.025));
#588=CARTESIAN_POINT('',(0.1,0.0274230761970314,0.025));
#589=CARTESIAN_POINT('',(0.1,0.0249076914364377,0.025));
#590=CARTESIAN_POINT('',(0.1,0.0249076914364377,0.015));
#591=CARTESIAN_POINT('',(0.055,0.035,0.025));
#592=CARTESIAN_POINT('',(0.01,0.03,0.01));
#593=CARTESIAN_POINT('',(0.016359190048243,0.030706576672027,0.01));
#594=CARTESIAN_POINT('',(0.016359190048243,0.030706576672027,0.025));
#595=CARTESIAN_POINT('',(0.016359190048243,0.030706576672027,0.015));
#596=CARTESIAN_POINT('',(0.055,0.035,0.015));
#597=CARTESIAN_POINT('',(0.005,0.015,0.025));
#598=CARTESIAN_POINT('',(0.0079766723284864,0.0239300169854592,0.025));
#599=CARTESIAN_POINT('',(0.0079766723284864,0.0239300169854592,0.015));
#600=CARTESIAN_POINT('',(0.0079766723284864,0.0239300169854592,0.01));
#601=CARTESIAN_POINT('',(-1.91276405113976E-18,1.07126888604079E-18,0.01));
#602=CARTESIAN_POINT('',(0.,0.,0.01));
#603=CARTESIAN_POINT('',(0.,0.,0.025));
#604=CARTESIAN_POINT('',(0.,0.,0.015));
#605=CARTESIAN_POINT('',(0.005,0.015,0.015));
#606=CARTESIAN_POINT('',(0.0131761569173682,0.,0.025));
#607=CARTESIAN_POINT('',(0.0131761569173682,0.,0.0125));
#608=CARTESIAN_POINT('',(0.0183261569173682,0.,0.0125));
#609=CARTESIAN_POINT('',(0.0131761569173682,0.,0.));
#610=CARTESIAN_POINT('',(0.0105409255338946,0.,0.));
#611=CARTESIAN_POINT('',(0.0158113883008419,0.,0.));
#612=CARTESIAN_POINT('',(0.0158113883008419,0.,0.01));
#613=CARTESIAN_POINT('',(0.0263523138347365,-5.20417042793042E-18,0.01));
#614=CARTESIAN_POINT('',(0.0263523138347365,-5.20417042793042E-18,0.025));
#615=CARTESIAN_POINT('',(0.0263523138347365,-5.20417042793042E-18,0.015));
#616=CARTESIAN_POINT('',(0.0158113883008419,0.,0.015));
#617=CARTESIAN_POINT('',(0.0158113883008419,0.,0.025));
#618=CARTESIAN_POINT('',(0.0131761569173682,0.,0.025));
#619=CARTESIAN_POINT('',(0.0105409255338946,0.,0.025));
#620=CARTESIAN_POINT('',(0.0105409255338946,0.,0.015));
#621=CARTESIAN_POINT('',(0.0105409255338946,0.,0.01));
#622=CARTESIAN_POINT('',(0.0275055385536076,0.00345967415661352,0.025));
#623=CARTESIAN_POINT('',(0.0275055385536076,0.00345967415661352,0.01));
#624=CARTESIAN_POINT('',(0.0266354356009652,0.000849365298686248,0.01));
#625=CARTESIAN_POINT('',(0.0266354356009652,0.000849365298686248,0.025));
#626=CARTESIAN_POINT('',(0.0266354356009652,0.000849365298686248,0.015));
#627=CARTESIAN_POINT('',(0.0263523138347365,-7.96565264615728E-18,0.015));
#628=CARTESIAN_POINT('',(0.05,0.02,0.025));
#629=CARTESIAN_POINT('',(0.0191719302919737,0.0100816259733954,0.025));
#630=CARTESIAN_POINT('',(0.0171486026204601,0.00401164295885463,0.025));
#631=CARTESIAN_POINT('',(0.0361222685814704,-0.00231291236148213,0.025));
#632=CARTESIAN_POINT('',(0.0339136380599735,0.0175647623319903,0.025));
#633=CARTESIAN_POINT('',(0.0988956847392515,0.024784989740799,0.025));
#634=CARTESIAN_POINT('',(0.0495189494070899,0.0243294553361907,0.025));
#635=CARTESIAN_POINT('',(0.0174635053089916,0.0207677393252908,0.025));
#636=CARTESIAN_POINT('',(0.0204868329805052,0.0298377223398316,0.025));
#637=CARTESIAN_POINT('',(0.05,0.02,0.));
#638=CARTESIAN_POINT('',(0.0361222685814704,-0.00231291236148213,0.));
#639=CARTESIAN_POINT('',(0.0171486026204601,0.00401164295885463,0.));
#640=CARTESIAN_POINT('',(0.0339136380599735,0.0175647623319903,0.));
#641=CARTESIAN_POINT('',(0.0252302494707577,0.0282565835097475,0.));
#642=CARTESIAN_POINT('',(0.0194868329805052,0.0268377223398316,0.));
#643=CARTESIAN_POINT('',(0.0174635053089916,0.0207677393252908,0.));
#644=CARTESIAN_POINT('',(0.101104315260748,0.0300611626532638,0.));
#645=CARTESIAN_POINT('',(0.0500711070374642,0.0193600366628226,0.));
#646=CARTESIAN_POINT('',(0.0252302494707577,0.0282565835097475,0.015));
#647=CARTESIAN_POINT('',(0.0171486026204601,0.00401164295885463,0.015));
#648=CARTESIAN_POINT('',(0.0500711070374642,0.0193600366628226,0.015));
#649=CARTESIAN_POINT('',(0.0339136380599735,0.0175647623319903,0.015));
#650=CARTESIAN_POINT('',(0.063225066375491,0.0208215877003811,0.01));
#651=CARTESIAN_POINT('',(0.0339136380599735,0.0175647623319903,0.01));
#652=CARTESIAN_POINT('',(0.0180187055731026,0.0066219518167819,0.01));
#653=CARTESIAN_POINT('',(0.0171486026204601,0.00401164295885463,0.01));
#654=CARTESIAN_POINT('',(0.0361222685814704,-0.00231291236148213,0.015));
#655=CARTESIAN_POINT('',(0.0361222685814704,-0.00231291236148213,0.015));
#656=CARTESIAN_POINT('',(0.0361222685814704,-0.00231291236148213,0.01));
#657=CARTESIAN_POINT('',(0.0361222685814704,-0.00231291236148213,0.01));
#658=CARTESIAN_POINT('',(0.0361222685814704,-0.00231291236148213,0.025));
#659=CARTESIAN_POINT('',(0.0561043152607485,0.0250611626532638,0.015));
#660=CARTESIAN_POINT('',(0.0174635053089916,0.0207677393252908,0.015));
#661=CARTESIAN_POINT('',(0.0144868329805051,0.0118377223398316,0.015));
#662=CARTESIAN_POINT('',(0.0174635053089916,0.0207677393252908,0.015));
#663=CARTESIAN_POINT('',(0.0204868329805052,0.0298377223398316,0.01));
#664=CARTESIAN_POINT('',(0.0174635053089916,0.0207677393252908,0.01));
#665=CARTESIAN_POINT('',(0.0495189494070899,0.0243294553361907,0.01));
#666=CARTESIAN_POINT('',(0.0174635053089916,0.0207677393252908,0.01));
#667=CARTESIAN_POINT('',(0.0174635053089916,0.0207677393252908,0.015));
#668=CARTESIAN_POINT('',(0.0174635053089916,0.0207677393252908,0.015));
#669=CARTESIAN_POINT('',(0.0174635053089916,0.0207677393252908,0.01));
#670=CARTESIAN_POINT('',(0.0174635053089916,0.0207677393252908,0.01));
#671=CARTESIAN_POINT('',(0.0174635053089916,0.0207677393252908,0.025));
#672=CARTESIAN_POINT('',(0.0131761569173682,0.015,0.0125));
#673=CARTESIAN_POINT('',(0.0131761569173682,0.015,0.0125));
#674=CARTESIAN_POINT('',(0.0183261569173682,0.015,0.0125));
#675=CARTESIAN_POINT('',(0.0131761569173682,0.015,0.0125));
#676=MECHANICAL_DESIGN_GEOMETRIC_PRESENTATION_REPRESENTATION('',(#381),
#677);
#677=(
GEOMETRIC_REPRESENTATION_CONTEXT(3)
GLOBAL_UNCERTAINTY_ASSIGNED_CONTEXT((#678))
GLOBAL_UNIT_ASSIGNED_CONTEXT((#681,#680,#679))
REPRESENTATION_CONTEXT('Part 1','TOP_LEVEL_ASSEMBLY_PART')
);
#678=UNCERTAINTY_MEASURE_WITH_UNIT(LENGTH_MEASURE(1.E-8),#681,
'DISTANCE_ACCURACY_VALUE','Maximum Tolerance applied to model');
#679=(
NAMED_UNIT(*)
SI_UNIT($,.STERADIAN.)
SOLID_ANGLE_UNIT()
);
#680=(
NAMED_UNIT(*)
PLANE_ANGLE_UNIT()
SI_UNIT($,.RADIAN.)
);
#681=(
LENGTH_UNIT()
NAMED_UNIT(*)
SI_UNIT($,.METRE.)
);
#682=PRODUCT_DEFINITION_SHAPE('','',#683);
#683=PRODUCT_DEFINITION('','',#685,#684);
#684=PRODUCT_DEFINITION_CONTEXT('',#691,'design');
#685=PRODUCT_DEFINITION_FORMATION_WITH_SPECIFIED_SOURCE('','',#687,
 .NOT_KNOWN.);
#686=PRODUCT_RELATED_PRODUCT_CATEGORY('','',(#687));
#687=PRODUCT('Part 1','Part 1','Part 1',(#689));
#688=PRODUCT_CATEGORY('','');
#689=PRODUCT_CONTEXT('',#691,'mechanical');
#690=APPLICATION_PROTOCOL_DEFINITION('international standard',
'ap242_managed_model_based_3d_engineering',2020,#691);
#691=APPLICATION_CONTEXT('managed model based 3d engineering');
ENDSEC;
END-ISO-10303-21;
